<mxfile host="app.diagrams.net" modified="2024-04-11T15:10:19.600Z" agent="Mozilla/5.0 (X11; Linux x86_64) AppleWebKit/537.36 (KHTML, like Gecko) Chrome/122.0.0.0 Safari/537.36 Edg/122.0.0.0" version="24.2.2" etag="B0zBAOsBTl86wS4ltn1s" type="github">
  <diagram name="Page-1" id="1mlQmXnzB4ciEe5e4Xdm">
    <mxGraphModel>
      <root>
        <mxCell id="0" />
        <mxCell id="1" parent="0" />
      </root>
    </mxGraphModel>
  </diagram>
</mxfile>
